<?xml version="1.0" standalone="no"?>
<!DOCTYPE svg PUBLIC "-//W3C//DTD SVG 20010904//EN"
 "http://www.w3.org/TR/2001/REC-SVG-20010904/DTD/svg10.dtd">
<svg version="1.0" xmlns="http://www.w3.org/2000/svg"
 width="500.000000pt" height="500.000000pt" viewBox="0 0 500.000000 500.000000"
 preserveAspectRatio="xMidYMid meet">

<g transform="translate(0.000000,500.000000) scale(0.100000,-0.100000)"
fill="#000000" stroke="none">
<path d="M0 2500 l0 -2500 2500 0 2500 0 0 2500 0 2500 -2500 0 -2500 0 0
-2500z m2271 1928 c45 -35 79 -69 79 -79 0 -10 -5 -40 -12 -68 -9 -42 -9 -53
5 -75 32 -48 153 -59 226 -21 49 25 66 60 67 137 1 38 4 71 6 73 7 7 123 54
126 51 1 -2 -18 -45 -42 -97 -24 -52 -43 -96 -41 -97 2 -2 24 6 50 17 49 21
49 21 2 -48 -26 -38 -30 -55 -35 -133 l-5 -90 -31 6 c-95 20 -180 26 -255 20
-78 -6 -82 -8 -55 -19 28 -11 27 -12 -32 -18 -96 -10 -267 -70 -385 -134 -6
-4 -29 50 -29 67 0 15 157 88 253 119 84 27 131 37 297 64 14 2 4 5 -22 6
-109 3 -320 -42 -462 -99 -84 -33 -93 -32 -136 16 -25 27 -25 27 -2 21 12 -3
22 -3 22 0 0 3 -30 36 -66 73 l-65 68 51 7 c57 8 62 5 88 -45 23 -45 58 -69
114 -76 71 -10 113 2 158 45 49 47 51 73 8 132 -29 40 -30 46 -20 84 15 55 52
155 58 155 3 0 41 -28 85 -62z m373 -495 c131 -32 303 -116 275 -133 -8 -6 11
-40 65 -114 43 -58 82 -108 87 -112 5 -3 9 -10 9 -15 0 -6 -5 -7 -12 -3 -17
11 -4 -9 97 -141 123 -161 118 -149 56 -141 -72 9 -81 14 -81 45 -1 24 -2 24
-21 -12 -11 -22 -19 -40 -17 -42 2 -1 26 -14 53 -28 80 -42 79 -40 62 -73 -8
-16 -27 -40 -41 -53 l-26 -25 -98 19 c-106 20 -131 37 -180 124 l-23 40 56 17
c57 18 72 34 32 34 -44 0 -145 41 -186 77 -45 38 -81 98 -81 135 0 52 73 127
125 129 19 0 19 1 -1 9 -11 4 -46 11 -77 15 l-55 7 -31 -43 c-40 -54 -65 -139
-57 -190 3 -22 4 -39 1 -39 -3 0 -23 35 -43 78 -37 76 -37 78 -37 205 0 140
-3 143 -51 42 -45 -98 -56 -274 -23 -390 l12 -40 26 85 27 85 12 -65 c16 -89
79 -212 147 -287 31 -35 61 -63 66 -63 5 0 9 15 9 33 0 18 7 58 17 88 l16 54
14 -75 c20 -103 63 -189 135 -265 l60 -64 -53 15 c-29 9 -63 20 -76 25 -35 13
-28 -5 15 -41 70 -58 220 -120 294 -120 15 0 30 -5 33 -10 9 -14 -113 -70
-154 -70 -26 0 -32 -3 -27 -16 15 -39 45 -175 50 -230 8 -73 -8 -184 -32 -228
l-17 -31 -6 100 c-7 94 -27 175 -61 239 -13 24 -14 15 -14 -96 0 -105 -4 -134
-26 -200 -26 -78 -72 -160 -107 -192 -17 -15 -16 -9 7 81 20 80 25 123 25 238
1 137 0 143 -37 250 -21 63 -46 165 -58 240 -30 191 -29 188 -40 140 -11 -47
-4 -245 12 -325 16 -82 14 -218 -5 -291 -16 -63 -78 -191 -114 -238 -18 -24
-18 -22 0 50 28 112 40 270 29 380 -6 57 -26 145 -50 224 -44 146 -70 278 -71
369 0 43 -3 55 -9 41 -15 -35 -11 -303 6 -405 24 -146 29 -350 10 -438 -13
-63 -74 -218 -82 -210 -1 2 2 41 8 87 8 61 8 109 -1 179 -11 93 -21 126 -94
324 -67 180 -84 378 -42 513 18 61 18 60 1 46 -25 -21 -65 -126 -77 -200 -12
-83 -7 -160 22 -296 33 -158 17 -312 -41 -385 l-20 -25 0 52 c0 69 -31 224
-69 346 -43 138 -56 246 -41 353 6 47 15 96 20 110 12 32 12 37 1 29 -17 -10
-51 -115 -62 -188 -7 -52 -7 -110 2 -208 12 -142 4 -255 -25 -350 -15 -50 -17
-47 -40 72 -17 90 -65 239 -137 424 -38 98 -43 121 -47 211 -3 73 0 116 12
156 32 111 111 228 209 310 32 26 55 48 51 48 -26 0 -165 -92 -233 -154 -31
-29 -33 -30 -21 -6 53 105 197 254 296 307 105 56 200 76 334 71 63 -3 124 -9
134 -13 29 -13 10 13 -28 36 l-31 20 50 -6 c28 -4 77 -14 109 -22z m462 -885
c19 -6 34 -17 34 -23 0 -16 -72 -126 -93 -144 -15 -12 -16 -11 -11 15 7 34
-14 98 -25 74 -5 -12 -17 -4 -53 32 l-48 47 33 10 c38 12 114 7 163 -11z
m-1541 -1657 c3 -5 -7 -11 -22 -13 -25 -3 -28 -7 -28 -38 0 -31 3 -35 28 -38
15 -2 25 -8 22 -13 -10 -14 -51 -10 -65 7 -20 23 -16 75 5 90 22 16 51 18 60
5z m135 -16 c0 -20 5 -25 25 -25 20 0 25 5 25 25 0 14 5 25 10 25 6 0 10 -27
10 -60 0 -33 -4 -60 -10 -60 -5 0 -10 11 -10 25 0 20 -5 25 -25 25 -20 0 -25
-5 -25 -25 0 -14 -4 -25 -10 -25 -6 0 -10 27 -10 60 0 33 4 60 10 60 6 0 10
-11 10 -25z m268 -35 c17 -49 18 -60 6 -60 -8 0 -14 7 -14 15 0 21 -40 19 -56
-2 -7 -10 -15 -15 -18 -12 -5 5 3 34 29 107 11 30 34 9 53 -48z m176 18 l25
-43 1 43 c0 23 5 42 10 42 6 0 10 -27 10 -60 0 -74 -19 -80 -52 -17 l-23 42
-3 -42 c-5 -65 -22 -51 -22 17 0 74 16 79 54 18z m246 33 c0 -5 -12 -11 -27
-13 -25 -3 -28 -7 -28 -38 0 -29 4 -36 23 -38 15 -2 22 2 22 12 0 9 -7 16 -16
16 -8 0 -12 5 -9 10 3 6 15 10 26 10 17 0 20 -6 17 -32 -3 -29 -7 -33 -34 -36
-19 -2 -36 3 -44 13 -20 24 -17 75 5 91 21 16 65 19 65 5z m190 -1 c0 -5 -9
-10 -20 -10 -11 0 -20 -7 -20 -15 0 -8 9 -15 20 -15 11 0 20 -4 20 -10 0 -5
-9 -10 -20 -10 -11 0 -20 -7 -20 -15 0 -8 9 -15 20 -15 11 0 20 -4 20 -10 0
-5 -16 -10 -35 -10 l-35 0 0 60 0 60 35 0 c19 0 35 -4 35 -10z m263 -16 l13
-25 12 25 c6 14 16 26 22 26 13 0 12 -10 -5 -40 -8 -14 -14 -37 -15 -52 0 -18
-5 -28 -15 -28 -10 0 -15 10 -15 28 -1 15 -7 38 -15 52 -17 30 -18 40 -5 40 5
0 15 -12 23 -26z m251 10 c36 -35 10 -104 -39 -104 -25 0 -55 33 -55 60 0 49
61 77 94 44z m154 -37 c2 -38 7 -47 21 -47 22 0 31 19 31 66 0 19 5 34 10 34
17 0 12 -87 -6 -104 -39 -39 -84 -7 -84 61 0 61 24 53 28 -10z m251 44 c10 -6
12 -19 7 -41 -3 -20 -1 -38 5 -47 7 -7 9 -17 5 -20 -4 -4 -18 6 -31 22 l-24
30 -1 -27 c0 -18 -5 -28 -15 -28 -12 0 -15 13 -15 60 0 59 1 60 28 60 15 0 33
-4 41 -9z m-1659 -271 c0 -47 2 -50 25 -50 14 0 25 -4 25 -10 0 -5 -16 -10
-35 -10 l-35 0 0 60 c0 33 4 60 10 60 6 0 10 -22 10 -50z m180 -10 c0 -33 -4
-60 -10 -60 -6 0 -10 27 -10 60 0 33 4 60 10 60 6 0 10 -27 10 -60z m180 50
c0 -5 -9 -10 -20 -10 -11 0 -20 -7 -20 -15 0 -8 9 -15 20 -15 11 0 20 -4 20
-10 0 -5 -9 -10 -20 -10 -15 0 -20 -7 -20 -25 0 -14 -4 -25 -10 -25 -6 0 -10
27 -10 60 l0 60 30 0 c17 0 30 -4 30 -10z m180 0 c0 -5 -11 -10 -25 -10 -16 0
-25 -6 -25 -15 0 -8 9 -15 20 -15 11 0 20 -4 20 -10 0 -5 -9 -10 -20 -10 -11
0 -20 -7 -20 -15 0 -9 9 -15 25 -15 14 0 25 -4 25 -10 0 -5 -16 -10 -35 -10
l-35 0 0 60 0 60 35 0 c19 0 35 -4 35 -10z m291 -32 l24 -43 3 43 c5 64 22 50
22 -18 0 -74 -17 -79 -54 -17 l-26 42 0 -42 c0 -24 -4 -43 -10 -43 -6 0 -10
27 -10 60 0 73 16 79 51 18z m253 26 c36 -35 10 -104 -39 -104 -25 0 -55 33
-55 60 0 49 61 77 94 44z m142 -19 c9 -50 21 -52 29 -5 8 50 32 53 41 5 9 -50
21 -52 29 -5 4 22 11 40 16 40 12 0 11 -8 -3 -69 -14 -62 -33 -66 -49 -8 l-12
42 -12 -40 c-16 -55 -36 -51 -52 10 -15 61 -16 65 -3 65 5 0 12 -16 16 -35z
m-1076 -420 c0 -9 -9 -15 -25 -15 -25 0 -25 -1 -25 -80 0 -73 -2 -80 -20 -80
-18 0 -20 7 -20 80 0 79 0 80 -25 80 -16 0 -25 6 -25 15 0 12 14 15 70 15 56
0 70 -3 70 -15z m70 -25 c0 -39 1 -40 35 -40 34 0 35 1 35 40 0 33 3 40 20 40
19 0 20 -7 20 -95 0 -88 -1 -95 -20 -95 -17 0 -20 7 -20 40 0 39 -1 40 -35 40
-34 0 -35 -1 -35 -40 0 -33 -3 -40 -20 -40 -19 0 -20 7 -20 95 0 88 1 95 20
95 17 0 20 -7 20 -40z m270 25 c0 -10 -11 -15 -35 -15 -31 0 -35 -3 -35 -25 0
-21 5 -25 30 -25 20 0 30 -5 30 -15 0 -10 -10 -15 -30 -15 -25 0 -30 -4 -30
-25 0 -22 4 -25 35 -25 24 0 35 -5 35 -15 0 -12 -13 -15 -55 -15 l-55 0 0 95
0 95 55 0 c42 0 55 -3 55 -15z m221 5 c22 -12 27 -66 7 -72 -9 -3 -8 -9 5 -22
40 -41 2 -86 -73 -86 l-50 0 0 95 0 95 46 0 c25 0 54 -5 65 -10z m179 -5 c0
-10 -11 -15 -35 -15 -31 0 -35 -3 -35 -25 0 -21 5 -25 30 -25 20 0 30 -5 30
-15 0 -10 -10 -15 -30 -15 -25 0 -30 -4 -30 -25 0 -22 4 -25 35 -25 24 0 35
-5 35 -15 0 -12 -13 -15 -55 -15 l-55 0 0 95 0 95 55 0 c42 0 55 -3 55 -15z
m165 -82 c29 -86 30 -93 13 -93 -11 0 -23 11 -28 25 -8 20 -16 25 -45 25 -29
0 -36 -4 -41 -25 -4 -16 -13 -25 -26 -25 -12 0 -18 5 -16 13 3 6 17 49 33 95
25 77 29 83 52 80 23 -3 30 -14 58 -95z m152 89 c19 -12 1 -27 -31 -27 -44 0
-42 -21 3 -50 45 -28 54 -61 25 -90 -22 -22 -97 -17 -102 7 -3 14 3 15 36 11
55 -7 64 18 16 47 -48 30 -60 55 -39 86 16 24 65 33 92 16z m173 -7 c0 -9 -9
-15 -25 -15 -25 0 -25 -1 -25 -80 0 -73 -2 -80 -20 -80 -18 0 -20 7 -20 80 0
79 0 80 -25 80 -16 0 -25 6 -25 15 0 12 14 15 70 15 56 0 70 -3 70 -15z"/>
<path d="M2202 4378 c-25 -25 -2 -78 33 -78 18 0 45 27 45 45 0 35 -53 58 -78
33z"/>
<path d="M2790 3587 c0 -3 30 -20 66 -37 36 -17 90 -52 120 -76 l55 -45 -23
43 c-13 24 -23 52 -23 63 0 14 -11 24 -40 33 -44 14 -155 28 -155 19z"/>
<path d="M1927 1366 c-11 -27 -8 -36 8 -36 16 0 17 5 6 34 -7 18 -8 18 -14 2z"/>
<path d="M3030 1360 c-14 -26 3 -60 30 -60 21 0 34 31 25 60 -3 11 -15 20 -25
20 -11 0 -24 -9 -30 -20z"/>
<path d="M3460 1360 c0 -13 5 -18 15 -14 8 4 15 12 15 20 0 8 -7 14 -15 14 -8
0 -15 -9 -15 -20z"/>
<path d="M2860 1130 c-14 -26 3 -60 30 -60 10 0 22 9 25 20 9 29 -4 60 -25 60
-11 0 -24 -9 -30 -20z"/>
<path d="M2480 675 c0 -18 5 -25 19 -25 26 0 44 23 29 38 -22 22 -48 14 -48
-13z"/>
<path d="M2480 595 c0 -26 22 -33 49 -16 21 13 5 41 -24 41 -20 0 -25 -5 -25
-25z"/>
<path d="M2823 662 c-11 -41 -10 -42 13 -42 27 0 29 11 10 55 l-12 30 -11 -43z"/>
</g>
</svg>
